<svg xmlns="http://www.w3.org/2000/svg" viewBox="0 0 64 64"><title>Blog</title><g id="Blog"><path d="M50,8H14a4,4,0,0,0-4,4V52a4,4,0,0,0,4,4H50a4,4,0,0,0,4-4V12A4,4,0,0,0,50,8ZM52,52a2,2,0,0,1-2,2H14a2,2,0,0,1-2-2V12a2,2,0,0,1,2-2H50a2,2,0,0,1,2,2Z" style="fill:#28282b"/><path d="M44,18H20a1,1,0,0,0,0,2H44a1,1,0,0,0,0-2Z" style="fill:#28282b"/><path d="M44,26H20a1,1,0,0,0,0,2H44a1,1,0,0,0,0-2Z" style="fill:#28282b"/><path d="M44,34H20a1,1,0,0,0,0,2H44a1,1,0,0,0,0-2Z" style="fill:#28282b"/><path d="M32,42H20a1,1,0,0,0,0,2H32a1,1,0,0,0,0-2Z" style="fill:#28282b"/></g></svg>
